<svg id="Layer_1" data-name="Layer 1" xmlns="http://www.w3.org/2000/svg" viewBox="0 0 270 180"><defs><style>.cls-1{fill:#2f3037;}</style></defs><path class="cls-1" d="M196.09,87.57c3.81-20.68-2.4-49.11-25.06-62.66A62.9,62.9,0,0,0,124,19c-22,5.87-38.09,21.63-43.17,42.14a41.77,41.77,0,0,0-1.42,12.78,43.14,43.14,0,0,0,1.47,7.9,33.79,33.79,0,0,1,1.46,10.13C82.25,96,79.43,100.26,77,104c-2.71,4.08-5,7.61-3.69,10.86a8,8,0,0,0,6.09,3.9,3.49,3.49,0,0,0,.44,0,2.28,2.28,0,0,1,2.56,2.43c0,5.07.13,7.68,2.22,8.88a4.54,4.54,0,0,0-.38,1.2,4.33,4.33,0,0,0,1.37,3.84,7.46,7.46,0,0,0,3.87,2l.29.06a5.76,5.76,0,0,1,.08,1.1c0,.9-.08,1.81-.19,2.71-.41,3.9-1,9.24,6.84,11.78a15.91,15.91,0,0,0,4.81.59,76.72,76.72,0,0,0,21.67-4.15,27.62,27.62,0,0,1,3.56,11.47,2.36,2.36,0,0,0,.71,1.72,2.44,2.44,0,0,0,1.72.72h60.93a2.44,2.44,0,0,0,2.28-1.69,2.5,2.5,0,0,0-.87-2.74c-2.53-1.92-10.88-22.09-11.13-29.34.73-1.67,1.72-3.54,2.89-5.72A114.49,114.49,0,0,0,196.09,87.57Zm-20.86,41.56c.07,5.83,5.32,21.23,9.84,29.13H131.15a34.67,34.67,0,0,0-3.58-10.69c7.06-2.77,13.28-6.32,16.27-10.23a2.44,2.44,0,0,0-3.88-3c-6.89,9-35.59,15.88-42,13.78-4.06-1.32-3.9-2.88-3.51-6.65a28.68,28.68,0,0,0,.22-3.21c0-4.11-1.65-5.34-4.14-5.91a3.1,3.1,0,0,1-1.31-.51,6.53,6.53,0,0,1,1.61-1.14,2.44,2.44,0,0,0-1.08-4.63c-.88,0-1.86,0-2.37-.06a38.6,38.6,0,0,1-.16-4.81,7.11,7.11,0,0,0-7.13-7.3c-1.76-.37-2.29-.85-2.33-1-.36-.85,2-4.38,3.25-6.28,2.71-4.07,6.08-9.15,6.21-14.63a34.36,34.36,0,0,0-1-9A24.2,24.2,0,0,1,95.41,78a7.53,7.53,0,0,1,3.62.25,2.44,2.44,0,1,0,1.29-4.7,12.24,12.24,0,0,0-5.92-.32A25,25,0,0,0,85,77.88a29.86,29.86,0,0,1-.67-4.32A36,36,0,0,1,85.57,62.3c4.71-19,19.18-33.11,39.7-38.6a57.91,57.91,0,0,1,43.26,5.39c20.66,12.36,26.28,38.52,22.77,57.6a108.75,108.75,0,0,1-12.58,34.66c-1.34,2.5-2.5,4.66-3.33,6.65A2.43,2.43,0,0,0,175.23,129.13Z"/><path class="cls-1" d="M180.07,93.14a7.31,7.31,0,0,0-5.94-7.86l-4.66-6.47a7.33,7.33,0,0,0,.65-1.67l4.52-1.8A7.3,7.3,0,1,0,181.7,63.4L178,56.1a7.28,7.28,0,0,0-8.95-11.34L165,41.37a7.29,7.29,0,0,0-12.1-7.58L145.68,32a7.27,7.27,0,0,0-14-.09L122,33.83a7.28,7.28,0,0,0-11.64,8.59l-4.73,6.3A7.29,7.29,0,0,0,105.25,63l3.91,9.66a7.3,7.3,0,1,0,12,7.63h13.09a7.06,7.06,0,0,0,8,4.77l8.09,12.3a7.29,7.29,0,1,0,12.6,6.14l6-4.82a7.28,7.28,0,0,0,11.12-5.52Zm0-25a2.43,2.43,0,1,1-2.23,3.4s0,0,0-.07l0,0a2.36,2.36,0,0,1-.17-.87A2.43,2.43,0,0,1,180.1,68.09Zm-9.69-17.56a2.44,2.44,0,1,1,1.5,2.76l0,0h-.06A2.42,2.42,0,0,1,170.41,50.53Zm-2.43,6h0l-4.5,11.26-7.9-6.31A7.33,7.33,0,0,0,157.84,58L167.49,56C167.65,56.2,167.81,56.34,168,56.49Zm-2.59,19.57a2.44,2.44,0,0,1-2.68,1.75,2.41,2.41,0,0,1-2.1-2.41A2.43,2.43,0,0,1,163,73a2.66,2.66,0,0,1,.88.18h0l.07,0A2.44,2.44,0,0,1,165.39,76.06ZM158.17,36.4a2.44,2.44,0,1,1-2.44,2.44A2.45,2.45,0,0,1,158.17,36.4Zm-12.83.53,5.57,1.39c0,.18,0,.34,0,.52a7.31,7.31,0,0,0,7.31,7.31,7.08,7.08,0,0,0,3.7-1L166,48.5a7.28,7.28,0,0,0-.48,2.53c0,.15,0,.28,0,.43l-7.93,1.59A7.35,7.35,0,0,0,152,48.7l-8.92-8.92A7.3,7.3,0,0,0,145.34,36.93Zm7.95,19a2.44,2.44,0,1,1-2.43-2.43A2.43,2.43,0,0,1,153.29,55.9ZM138.67,31.53A2.44,2.44,0,1,1,136.23,34,2.44,2.44,0,0,1,138.67,31.53Zm.48,11.24,7.32,7.32A7.3,7.3,0,0,0,144,53.46h-5.77A7.28,7.28,0,0,0,135,49.62ZM124,38.41l7.94-1.59A7.37,7.37,0,0,0,135,40.25l-4.43,7.37-7.65-4.91a7.26,7.26,0,0,0,1.14-3.87C124.05,38.69,124,38.56,124,38.41Zm9.8,17.49a2.44,2.44,0,1,1-2.44-2.43A2.44,2.44,0,0,1,133.8,55.9ZM116.74,36.4a2.44,2.44,0,1,1-2.44,2.44A2.44,2.44,0,0,1,116.74,36.4Zm-2.66,9.24a6.88,6.88,0,0,0,4.67.2l7.53,4.82a7.4,7.4,0,0,0-1.78,2.8H113.85A7.33,7.33,0,0,0,111,49.78ZM107,58.34a2.44,2.44,0,1,1,2.43-2.44A2.44,2.44,0,0,1,107,58.34Zm7.31,21.93a2.44,2.44,0,1,1,2.44-2.43A2.43,2.43,0,0,1,114.3,80.27Zm1.39-9.6a6.56,6.56,0,0,0-1.39-.14,5.69,5.69,0,0,0-.71.07l-3.32-8.2a7.33,7.33,0,0,0,3.58-4.06H124.5a7.34,7.34,0,0,0,2.2,3.15Zm18.56,4.73H121.16a7.31,7.31,0,0,0-1.11-2l12-10,4.07,9.14A7.3,7.3,0,0,0,134.25,75.4Zm4-17.06H144a7.38,7.38,0,0,0,3.18,3.84l-5.06,8.45a6.78,6.78,0,0,0-1-.1c-.19,0-.37,0-.55,0l-4.19-9.38A7.29,7.29,0,0,0,138.22,58.34Zm2.89,21.93a2.44,2.44,0,1,1,2.44-2.43A2.43,2.43,0,0,1,141.11,80.27Zm10.4-15.85,6.81,5.45a7.28,7.28,0,0,0-2.26,3.47L147.84,75a7.26,7.26,0,0,0-1.4-2.11Zm4.22,40.23a2.44,2.44,0,1,1,2.44-2.44A2.45,2.45,0,0,1,155.73,104.65Zm9.75-12.19a7.52,7.52,0,0,0,.43,2.39l-4.11,3.29A7,7,0,0,0,154.62,95L146.53,82.7a7.3,7.3,0,0,0,1.56-2.8l8.22-1.64a7.3,7.3,0,0,0,9.55,3.88l3,4.17A7.29,7.29,0,0,0,165.48,92.46Zm2.37-22.52,4.65-11.63c.1,0,.19,0,.29,0a6.56,6.56,0,0,0,.88-.09l3,5.89a7.28,7.28,0,0,0-3.83,6.39c0,.09,0,.19,0,.28l-3.28,1.31A7.19,7.19,0,0,0,167.85,69.94Zm4.94,25a2.44,2.44,0,1,1,2.44-2.44A2.44,2.44,0,0,1,172.79,94.9Z"/></svg>