<?xml version="1.0" encoding="utf-8"?>
<!-- Generator: Adobe Illustrator 24.3.0, SVG Export Plug-In . SVG Version: 6.00 Build 0)  -->
<svg version="1.1" id="Layer_1" xmlns="http://www.w3.org/2000/svg" xmlns:xlink="http://www.w3.org/1999/xlink" x="0px" y="0px"
	 viewBox="0 0 270 180" style="enable-background:new 0 0 270 180;" xml:space="preserve">
<style type="text/css">
	.st0{fill:#737373;}
	.st1{fill:#EF5022;}
	.st2{fill:#F35022;}
	.st3{fill:#2F3037;}
	.st4{fill:#231F20;}
</style>
<g>
	<path class="st3" d="M82.35,155.84h89.94c7.27-0.01,13.15-5.9,13.16-13.16c0-1.21-0.98-2.19-2.19-2.19c-1.21,0-2.19,0.98-2.19,2.19
		c0,4.85-3.93,8.77-8.77,8.77H82.35c-4.85,0-8.77-3.93-8.77-8.77v-8.77c0-4.85,3.93-8.77,8.77-8.77c4.85,0,8.77,3.93,8.77,8.77
		c0,1.21,0.98,2.19,2.19,2.19c1.21,0,2.19-0.98,2.19-2.19V54.93h6.58v49.91c0,0.28,0.05,0.56,0.16,0.82l6.74,16.73
		c0.67,1.66,2.28,2.75,4.07,2.74h6.58c1.21,0,2.19-0.98,2.19-2.19c0-1.21-0.98-2.19-2.19-2.19h-1.85l6.08-15.08
		c0.1-0.26,0.16-0.54,0.16-0.82V35.13c0-6.06-4.91-10.97-10.97-10.97c-6.06,0-10.97,4.91-10.97,10.97v15.42h-6.58v-4.39
		c0-7.27-5.89-13.16-13.16-13.16s-13.16,5.89-13.16,13.16v96.52C69.2,149.95,75.09,155.83,82.35,155.84z M119.64,100.41
		c-1.36-0.75-2.85-1.24-4.39-1.44V61.51c0-1.21-0.98-2.19-2.19-2.19c-1.21,0-2.19,0.98-2.19,2.19v37.45
		c-1.54,0.2-3.03,0.69-4.39,1.44V46.16h13.16V100.41z M113.06,120.74l-6.14-15.23c1.63-1.61,3.86-2.45,6.14-2.32
		c2.28-0.13,4.51,0.72,6.14,2.32L113.06,120.74z M113.06,28.61c3.62-0.01,6.56,2.9,6.58,6.52v6.64h-13.16v-6.64
		C106.5,31.51,109.45,28.59,113.06,28.61z M82.35,37.38c4.85,0,8.77,3.93,8.77,8.78v77.96c-4.98-4.5-12.57-4.5-17.55,0V46.16
		C73.58,41.31,77.51,37.38,82.35,37.38z"/>
	<path class="st3" d="M128.42,54.54v5.18c0,2.09,1.48,3.89,3.53,4.3l4.15,0.83l-2.35,3.52c-1.15,1.74-0.92,4.05,0.55,5.54l3.66,3.66
		c1.48,1.47,3.79,1.7,5.53,0.55l3.53-2.35l0.83,4.15c0.41,2.05,2.21,3.53,4.3,3.53h5.18c2.09,0,3.89-1.48,4.3-3.53l0.83-4.15
		l3.52,2.35c1.74,1.15,4.06,0.93,5.54-0.55l3.66-3.66c1.47-1.48,1.7-3.79,0.55-5.54l-2.35-3.53l4.15-0.83
		c2.05-0.41,3.53-2.21,3.53-4.3v-5.18c0-2.09-1.48-3.89-3.53-4.3l-4.15-0.83l2.35-3.53c1.15-1.74,0.92-4.05-0.55-5.54l-3.66-3.66
		c-1.48-1.47-3.79-1.7-5.54-0.55l-3.52,2.35l-0.83-4.15c-0.41-2.05-2.21-3.52-4.3-3.52h-5.18c-2.09,0-3.89,1.48-4.3,3.52l-0.83,4.15
		l-3.53-2.35c-1.74-1.15-4.05-0.92-5.54,0.55l-3.66,3.66c-1.47,1.48-1.7,3.79-0.55,5.54l2.35,3.53l-4.15,0.83
		C129.89,50.65,128.42,52.45,128.42,54.54z M132.81,54.54l4.16-0.83c1.43-0.29,2.63-1.27,3.19-2.62c0.56-1.35,0.41-2.89-0.4-4.11
		l-2.35-3.53l3.66-3.66l3.52,2.35c1.22,0.81,2.76,0.96,4.11,0.4c1.35-0.56,2.34-1.76,2.62-3.19l0.83-4.15h5.18l0.83,4.15
		c0.29,1.43,1.27,2.63,2.62,3.19c1.35,0.56,2.89,0.41,4.11-0.4l3.53-2.35l3.66,3.66l-2.35,3.53c-0.81,1.22-0.96,2.76-0.4,4.11
		c0.56,1.35,1.76,2.34,3.19,2.62l4.16,0.83v5.18l-4.16,0.83c-1.43,0.29-2.63,1.27-3.19,2.62c-0.56,1.35-0.41,2.89,0.4,4.11
		l2.35,3.53l-3.66,3.66l-3.52-2.35c-1.22-0.81-2.76-0.96-4.11-0.4c-1.35,0.56-2.34,1.76-2.62,3.19l-0.83,4.16h-5.18l-0.83-4.16
		c-0.29-1.43-1.27-2.63-2.62-3.19c-1.35-0.56-2.89-0.41-4.11,0.4l-3.53,2.35l-3.66-3.66l2.35-3.53c0.81-1.22,0.96-2.76,0.4-4.11
		c-0.56-1.35-1.76-2.34-3.19-2.62l-4.16-0.83V54.54z"/>
	<path class="st3" d="M154.74,70.29c7.27,0,13.16-5.89,13.16-13.16c0-7.27-5.89-13.16-13.16-13.16c-7.27,0-13.16,5.89-13.16,13.16
		C141.59,64.39,147.48,70.28,154.74,70.29z M154.74,48.35c4.85,0,8.78,3.93,8.78,8.77s-3.93,8.77-8.78,8.77
		c-4.85,0-8.77-3.93-8.77-8.77S149.9,48.35,154.74,48.35z"/>
	<path class="st3" d="M197.28,105.08l-4.15-0.83l2.35-3.53c1.15-1.74,0.92-4.05-0.55-5.54l-3.67-3.66c-1.48-1.47-3.79-1.7-5.54-0.55
		l-3.52,2.35l-0.83-4.15c-0.41-2.05-2.21-3.53-4.3-3.53h-5.18c-2.09,0-3.89,1.48-4.3,3.53l-0.83,4.15l-3.53-2.35
		c-1.74-1.15-4.05-0.93-5.54,0.55l-3.66,3.66c-1.47,1.48-1.7,3.79-0.55,5.53l2.35,3.53l-4.15,0.83c-2.05,0.41-3.52,2.21-3.52,4.3
		v5.18c0,2.09,1.48,3.89,3.52,4.3l4.16,0.83l-2.35,3.53c-1.15,1.74-0.92,4.05,0.55,5.54l3.66,3.66c1.48,1.47,3.79,1.7,5.53,0.55
		l3.53-2.35l0.83,4.15c0.41,2.05,2.21,3.53,4.3,3.53h5.18c2.09,0,3.89-1.48,4.3-3.53l0.83-4.15l3.52,2.35
		c1.74,1.15,4.06,0.92,5.54-0.55l3.66-3.66c1.47-1.48,1.7-3.79,0.55-5.53l-2.35-3.53l4.15-0.83c2.05-0.41,3.53-2.21,3.53-4.3v-5.18
		C200.81,107.29,199.33,105.49,197.28,105.08z M196.42,114.56l-4.16,0.83c-1.43,0.29-2.63,1.27-3.19,2.62s-0.41,2.89,0.4,4.11
		l2.35,3.53l-3.66,3.66l-3.53-2.35c-1.22-0.81-2.76-0.96-4.11-0.4c-1.35,0.56-2.34,1.76-2.62,3.19l-0.83,4.16h-5.18l-0.83-4.16
		c-0.29-1.43-1.27-2.63-2.62-3.19c-1.35-0.56-2.89-0.41-4.11,0.4l-3.53,2.35l-3.66-3.66l2.35-3.52c0.81-1.22,0.96-2.76,0.4-4.11
		c-0.56-1.35-1.76-2.34-3.19-2.62l-4.15-0.83v-5.18l4.15-0.83c1.43-0.29,2.63-1.27,3.19-2.62c0.56-1.35,0.41-2.89-0.4-4.11
		l-2.35-3.53l3.66-3.66l3.53,2.35c1.22,0.81,2.76,0.96,4.11,0.4c1.35-0.56,2.34-1.76,2.62-3.19l0.83-4.16h5.18l0.83,4.16
		c0.29,1.43,1.27,2.63,2.62,3.19c1.35,0.56,2.89,0.41,4.11-0.4l3.53-2.35l3.66,3.66l-2.35,3.52c-0.81,1.22-0.96,2.76-0.4,4.11
		s1.76,2.34,3.19,2.62l4.16,0.83V114.56z"/>
	<path class="st3" d="M174.49,98.81c-7.27,0-13.16,5.89-13.16,13.16c0,7.27,5.89,13.16,13.16,13.16c7.27,0,13.16-5.89,13.16-13.16
		C187.64,104.7,181.75,98.81,174.49,98.81z M174.49,120.74c-4.85,0-8.77-3.93-8.77-8.77c0-4.85,3.93-8.78,8.77-8.78
		c4.85,0,8.77,3.93,8.77,8.78C183.26,116.81,179.33,120.74,174.49,120.74z"/>
	<path class="st3" d="M126.22,122.94c0,1.21,0.98,2.19,2.19,2.19h15.36c1.21,0,2.19-0.98,2.19-2.19c0-1.21-0.98-2.19-2.19-2.19
		h-15.36C127.21,120.74,126.22,121.72,126.22,122.94z"/>
	<path class="st3" d="M110.87,133.9h10.97c1.21,0,2.19-0.98,2.19-2.19c0-1.21-0.98-2.19-2.19-2.19h-10.97
		c-1.21,0-2.19,0.98-2.19,2.19C108.68,132.92,109.66,133.9,110.87,133.9z"/>
	<path class="st3" d="M128.42,131.71c0,1.21,0.98,2.19,2.19,2.19h17.55c1.21,0,2.19-0.98,2.19-2.19c0-1.21-0.98-2.19-2.19-2.19
		h-17.55C129.4,129.52,128.42,130.5,128.42,131.71z"/>
	<path class="st3" d="M108.68,140.48c0,1.21,0.98,2.19,2.19,2.19h43.87c1.21,0,2.19-0.98,2.19-2.19c0-1.21-0.98-2.19-2.19-2.19
		h-43.87C109.66,138.29,108.68,139.27,108.68,140.48z"/>
</g>
</svg>
