<svg id="Layer_1" data-name="Layer 1" xmlns="http://www.w3.org/2000/svg" xmlns:xlink="http://www.w3.org/1999/xlink" viewBox="0 0 600 600"><defs><style>.cls-1{fill:none;}.cls-2{fill:#e08a68;}.cls-3{fill:#ced0d8;}.cls-4{fill:#161e3a;}.cls-5{fill:#e6e6e6;}.cls-6{fill:#ef9e78;}.cls-7{fill:#666;}.cls-8{fill:#64342f;}.cls-9{fill:#2b203e;}.cls-10{fill:#f07a6e;}.cls-11{fill:#fff;}.cls-12{fill:#8c6239;}.cls-13{fill:#7c4f29;}.cls-14{fill:#333;}.cls-15{fill:#262728;}.cls-16{fill:#222a4e;}.cls-17{fill:#dadeea;}.cls-18{fill:#babbbf;}.cls-19{fill:#3f1d1b;}.cls-20{fill:#747cbb;}.cls-21{fill:#283460;}.cls-22{opacity:0.69;}.cls-23{clip-path:url(#clip-path);}.cls-24{opacity:0.43;}.cls-25{clip-path:url(#clip-path-2);}.cls-26{fill:#42210b;}.cls-27{fill:#1b243f;}.cls-28{opacity:0.42;}.cls-29{fill:#ccc;}.cls-30{fill:#330f1d;}.cls-31{fill:#c1272d;}.cls-32{fill:#3d1623;}.cls-33{clip-path:url(#clip-path-3);}.cls-34{clip-path:url(#clip-path-4);}</style><clipPath id="clip-path"><circle class="cls-1" cx="232.07" cy="109.87" r="7.95" transform="translate(-24.68 112.51) rotate(-25.92)"/></clipPath><clipPath id="clip-path-2"><circle class="cls-1" cx="212.2" cy="110.15" r="7.95" transform="translate(24.03 257.65) rotate(-65.53)"/></clipPath><clipPath id="clip-path-3"><circle class="cls-1" cx="368.31" cy="108.76" r="7.99" transform="translate(238.04 470.02) rotate(-86.62)"/></clipPath><clipPath id="clip-path-4"><circle class="cls-1" cx="388.27" cy="108.27" r="7.99" transform="translate(-10.97 163.84) rotate(-23.51)"/></clipPath></defs><path class="cls-2" d="M269.23,254.54c1.39,0,17.8,2.5,17.8,2.5l20.58,10.29c1.64,1,.62,4.54-1,5.57a1.9,1.9,0,0,1-.68.27c-1.67.28-3.06,4.45-5.56,5.28a36.69,36.69,0,0,0-3.82,1.63,7.24,7.24,0,0,1-5.94.12l-23.06-9.53-9.18-2.51Z"/><path class="cls-2" d="M332.36,175.83c1.39-.83,10-8.34,10-8.34s10-6.67,12.52-9.18,3.61-6.67,5.84-5.84,2.5,2.78,1.67,4.73-7.79,10.29-7.79,10.29l25-1.64a5.44,5.44,0,0,1,4.18,6.37c-.84,5.28-6.12,10.85-9.73,12.51s-20.58,1.67-23.37,1.67a67.36,67.36,0,0,1-6.95-.55l-10,2.22Z"/><path class="cls-3" d="M367.12,161.93l-21.41,57.29L305,248a4.41,4.41,0,0,0-1.36,5.65,29.06,29.06,0,0,0,6.46,8.44,6.68,6.68,0,0,0,7.88.6l41.89-26.22c3.36.18,7.23-7.23,7.51-17.24l10-30.87Z"/><path class="cls-4" d="M212.09,175.31a17.77,17.77,0,0,0,8.07,8.61c11.6,6.13,47.6,25,56.76,27.64,10.95,3.16,65.45-20.43,65.45-20.43s-.56-17.3-6.75-18.71l-57.37,13.72-48.37-24.57a13.76,13.76,0,0,0-15.48,2C211.56,166.12,209.77,169.92,212.09,175.31Z"/><ellipse class="cls-5" cx="196.58" cy="498.69" rx="85.68" ry="42.84"/><path class="cls-2" d="M195,118.62s4.11,24.14,2.71,29.47-12,9.8-12,9.8,22.89,16.21,31.55,11.29,11.53-7.37,11.53-7.37-6.78-.9-7.78-4.76-.37-37.24-.37-37.24Z"/><path class="cls-6" d="M240.67,110.66s-1.3,15.49-2.7,20.83-12.92,13.67-15.81,15.15-7.25.56-7.25.56-13.63-9.54-15.61-13.39-5-20.26-5-20.26-3.6-21.25.21-26.61,14.83-16.59,27.92-13.33,17.22,4.9,18,15.29C240.82,93.48,240.67,110.66,240.67,110.66Z"/><path class="cls-7" d="M237.58,102.17l-10.28.1a1.32,1.32,0,0,1-.32-1.76c.58-1.18,7.63-2.14,9.1-1.27S238.17,101.57,237.58,102.17Z"/><path class="cls-7" d="M201.91,102.93l11.65-.11a1.49,1.49,0,0,0,.31-2c-.68-1.33-8.68-2.25-10.33-1.23S201.24,102.27,201.91,102.93Z"/><path class="cls-8" d="M223.4,464.38s14.26,21.76,22.49,23.7c0,0,7.25,6.29,3.38,10.64s-10.64,4.35-15,3.38-18.86-15.47-18.86-15.47l-1-2.42L213,486.63l-5.32-3.87,2.9-19.83Z"/><path class="cls-8" d="M182.05,473.09l-.49,16-5.32,8.22-1,.48s-1.94,18.86-2.42,19.83-.49,3.39-3.39,5.8-10.15,5.81-15,1-5.32-9.67-5.32-9.67,13.54-31.44,14-34.34,2.42-9.67,2.42-9.67Z"/><ellipse class="cls-9" cx="235.19" cy="111.85" rx="2.42" ry="3.39" transform="translate(-1.1 2.35) rotate(-0.57)"/><ellipse class="cls-9" cx="213.42" cy="112.07" rx="2.42" ry="3.39" transform="translate(-1.11 2.13) rotate(-0.57)"/><path class="cls-10" d="M223.23,123.17c1.28-.22,2.81-.62,3.28-1.64.36-.8,0-1.8-1.09-3.06-1.91-2.2-.36-13.39.39-17.52l-.95-.12s-.7,3.81-1.08,7.89c-.51,5.54-.23,9,.86,10.23.88,1,1.2,1.78,1,2.3s-1,.86-2.56,1.13Z"/><path class="cls-11" d="M227,129.43,213,126.65s-1.57.06.29,2.77,9.92,3.43,9.92,3.43S226.87,132.13,227,129.43Z"/><path class="cls-12" d="M235.86,268.72s10.62,13.87,11,31.76c.35,16.21-18,139.18-21.51,162.2a4.75,4.75,0,0,1-4.3,4l-5.63.48a6.07,6.07,0,0,1-6.58-6.22l3.69-141.17L183,474.05s-14.78,6.38-18.86-1.93c-1.88-3.83,3.66-171.89,6.93-187s15.18-25.47,15.18-25.47Z"/><path class="cls-13" d="M226.22,393.22a81.1,81.1,0,0,0,9.4-.58c-4.4,30.93-8.76,60-10.27,70a4.75,4.75,0,0,1-4.3,4l-5.63.48a6.07,6.07,0,0,1-6.58-6.22l2-69.11A59.58,59.58,0,0,0,226.22,393.22Z"/><path class="cls-13" d="M171.92,370.73a57.53,57.53,0,0,0,24.71,15.88c1.43.75.75,1.43,2.21,2.05L183,474.05s-14.78,6.38-18.86-1.93c-1.06-2.18.26-57.29,2.2-107.29A60.5,60.5,0,0,0,171.92,370.73Z"/><path class="cls-14" d="M192.05,108.93s5.3-2,4.76-7.31,1.28-16.94,2.72-18.4,30,1.63,39.16-1.6l2.1,16.9,1.26-19.11s8.75-8,5.32-12.76-7.17-8.88-19.78-3.15c-11.88,5.4-33.56-.21-40.79,4.37-8.5,5.38-7.14,11.68-7.14,11.68s2.13,19.32,6.07,26.29Z"/><path class="cls-7" d="M242,80.74l-1.18,17.78-1.95-15.67C239.9,82.18,240.94,81.48,242,80.74Z"/><path class="cls-7" d="M192,86.53A38.82,38.82,0,0,0,197.76,89a53.3,53.3,0,0,0-.95,12.62c.54,5.32-4.76,7.31-4.76,7.31l-6.32-3.09c-3.65-6.46-5.74-23.52-6-26A37.82,37.82,0,0,0,192,86.53Z"/><path class="cls-15" d="M231.38,278.67c-8.22,4.35-20.32,6.77-26.6,5.32s-24.67-10.64-25.64-16l.17.16"/><rect class="cls-16" x="198.49" y="274.8" width="2.9" height="9.19" transform="translate(332.41 596.39) rotate(-167.09)"/><rect class="cls-16" x="226.06" y="272.38" width="2.9" height="9.19" transform="translate(548.44 436.59) rotate(155.84)"/><rect class="cls-16" x="189.3" y="271.41" width="2.9" height="9.19" transform="translate(243.77 607.3) rotate(-154.44)"/><rect class="cls-16" x="235.25" y="268.03" width="2.9" height="9.19" transform="translate(595.64 311.46) rotate(137.14)"/><path class="cls-6" d="M194.18,105.32s-1.74-5.06-6.07-2.59-3.29,9.7-.85,12.09,6.85,7.19,7.81,6.7a7,7,0,0,0,1.92-2Z"/><path class="cls-17" d="M225.09,157.28l-10.43,12.65-23.12-14.76-21.31,23.17s4,38.67,4.61,48.33c.35,6,.06,20.12-.22,30.16a15.48,15.48,0,0,0,10.43,15.08c8,2.77,18.94,5.8,26.56,5.18a103.76,103.76,0,0,0,18.51-3.58c6.57-1.83-2.31-10.22-1.77-17,1.47-18.35,10.33-52.29,8.06-65.07a248.47,248.47,0,0,1-3.58-29.78Z"/><polygon class="cls-18" points="214.93 169.85 223.16 166.46 229.44 169.85 223.16 160.18 214.93 169.85"/><polygon class="cls-17" points="212.98 171.16 211.44 162.95 193.87 146.2 186.24 157.88 202.38 175.13 212.98 171.16"/><path class="cls-17" d="M220.5,150l4.59,3.85c2,4.33,4.35,16,4.35,16l-5.8-7.25-7.78,6.83S223.51,159.93,220.5,150Z"/><polygon class="cls-18" points="201.39 170.82 211.55 163.08 214.45 169.85 209.13 167.91 201.39 170.82"/><rect class="cls-3" x="209.84" y="277.22" width="13.31" height="8.22" rx="4.11" transform="translate(462.11 537.63) rotate(173.8)"/><rect class="cls-15" x="210.62" y="277.88" width="11.75" height="6.77" rx="3.39" transform="translate(462.09 537.52) rotate(173.8)"/><path class="cls-19" d="M223.91,467.66a28.5,28.5,0,0,0,5.24,2.84,17.89,17.89,0,0,1,4.62,3.07,9.1,9.1,0,0,1,.93,1,3.55,3.55,0,0,1,.72,1.25c0,.11.1.51,0,.59a.85.85,0,0,0-.19-.06l-.37-.12c-.44-.13-.87-.28-1.3-.45A12.09,12.09,0,0,1,229,473a11.77,11.77,0,0,1-1.68-2.5,7.67,7.67,0,0,0-1.78-2.4.42.42,0,0,0-.69.4,11.42,11.42,0,0,1-.5,7.32,8.5,8.5,0,0,1-.38.81c-.07.13-.25.63-.41.66,0,0,0,0,0,0a.26.26,0,0,1-.07-.1,1.17,1.17,0,0,1-.12-.31,7.9,7.9,0,0,1-.13-1,20.91,20.91,0,0,1,0-4.11,20.44,20.44,0,0,1,1-4.58c.17-.51-.64-.73-.81-.22a21.34,21.34,0,0,0-.92,9.42c.07.58.16,1.3.72,1.62s1.17-.3,1.46-.82a12,12,0,0,0,1.32-4.07,12.17,12.17,0,0,0-.29-4.84l-.69.41a7.49,7.49,0,0,1,1.69,2.32,11.67,11.67,0,0,0,1.6,2.4,12.64,12.64,0,0,0,4.91,3.15c.46.18.92.34,1.39.49s1,.37,1.38,0a1.48,1.48,0,0,0,.3-1.39,3.87,3.87,0,0,0-.76-1.43,14.65,14.65,0,0,0-4.65-3.81c-1-.56-2-1-3.07-1.52a16.12,16.12,0,0,1-3.26-1.85c-.41-.33-1,.25-.59.59Z"/><path class="cls-19" d="M169.3,476.85c.31,2.64,1.44,5.06,2.29,7.55a23.7,23.7,0,0,1,1.54,7.76,12.32,12.32,0,0,1-.14,1.92,4.45,4.45,0,0,1-.42,1.43,1.6,1.6,0,0,1-.44.53.57.57,0,0,1-.28.14c-.11,0-.14-.07-.2-.17a17.8,17.8,0,0,1-.87-1.68,17.36,17.36,0,0,1-1.94-7.18,14.12,14.12,0,0,1,.69-4.17,10.71,10.71,0,0,0,.64-4.15.42.42,0,0,0-.78-.21,15.42,15.42,0,0,1-7.53,6.61c-.39.15-.78.29-1.18.41-.21.07-.92.38-1.05.12s.16-.68.29-.86c.25-.37.54-.73.82-1.08a27.74,27.74,0,0,1,9-7.29c.48-.24.06-1-.42-.72a28.51,28.51,0,0,0-9.38,7.62c-.51.64-1.25,1.41-1.2,2.3a1,1,0,0,0,.71.93,2.62,2.62,0,0,0,1.45-.23,15.88,15.88,0,0,0,5-2.61,16.05,16.05,0,0,0,4.17-4.78l-.77-.21a10.34,10.34,0,0,1-.61,3.93,15.2,15.2,0,0,0-.72,3.95,17.58,17.58,0,0,0,1.9,7.74c.29.61.59,1.21.92,1.81s.72.92,1.37.68c1.08-.4,1.44-1.66,1.6-2.69a19.26,19.26,0,0,0-.85-8.32c-.44-1.52-1-3-1.54-4.47a19.47,19.47,0,0,1-1.27-4.61.43.43,0,0,0-.42-.41.41.41,0,0,0-.42.41Z"/><path class="cls-20" d="M222.49,164s-6,2.65-10.81-1.07l-4.44,3.55,5,8.68-2.13,26.06,10.1,15.42S225,206,225,204.94s-5.32-30.31-5.32-30.31l3.72-8Z"/><path class="cls-4" d="M185.09,158.15s32.43,44.13,33.5,52.11c0,0,8.74-34,9.11-48.45,0-1.4-.84-2.9-.14-3.61.06-.06,5.92,3.67,5.92,3.67s9.33,9,1.27,72.92c-3.83,30.33,4.66,35.6,8.06,42.83,8.51,18.08,2.78,37.54,2.78,37.54s-22.75-6-27-36.31c-5.21,16.56-17.57,24.39-25.52,25.52-22.34,3.19-25.53-1.59-25.53-1.59L175,262.9s-1.72-42.44-4.85-52.06S163,180,170,172.22Z"/><path class="cls-21" d="M221.41,279.56c5.77-31,4.28-48.22,2.11-53.11-5.9-13.28-32.87-29-36.85-31.23l14.19-5.62-16.68-6.83-1.58-21.64-.53,0,1.6,22,15.76,6.45-14,5.55.5.27c.3.17,30.83,17.14,37.1,31.25,2.16,4.85,3.61,21.92-2.15,52.8Z"/><path class="cls-14" d="M231.08,126.18s-.17-2-4.34-2.28-10.54-2.27-12.14-1.62-4.25,1.3-4.25,3.25c0,0,15.42,3.9,20.73,3.9C231.08,129.43,232.15,128.78,231.08,126.18Z"/><path class="cls-21" d="M222.35,224.05c2.74-13.41,5.8-20.54,8.82-25.8a38.94,38.94,0,0,1,6-8.27l.34-.33-11.52-3.14,10.7-5.82L230.75,160l-.51.14L236,180.43l-11.49,6.25,11.89,3.24a43.83,43.83,0,0,0-5.7,8c-3,5.29-6.13,12.49-8.89,26Z"/><g class="cls-22"><g class="cls-23"><g class="cls-24"><circle class="cls-11" cx="232.07" cy="109.87" r="7.95" transform="translate(-24.68 112.51) rotate(-25.92)"/></g><g class="cls-24"><rect class="cls-11" x="224.25" y="105.88" width="23.59" height="2.61" transform="translate(302.43 357.79) rotate(-129.26)"/></g><g class="cls-24"><rect class="cls-11" x="221.24" y="108.85" width="23.59" height="1.88" transform="translate(295.49 359.7) rotate(-129.26)"/></g></g></g><g class="cls-22"><g class="cls-25"><g class="cls-24"><circle class="cls-11" cx="212.2" cy="110.15" r="7.95" transform="translate(24.03 257.65) rotate(-65.53)"/></g><g class="cls-24"><rect class="cls-11" x="204.38" y="106.17" width="23.59" height="2.61" transform="translate(269.76 342.86) rotate(-129.26)"/></g><g class="cls-24"><rect class="cls-11" x="201.36" y="109.13" width="23.59" height="1.88" transform="translate(262.82 344.77) rotate(-129.26)"/></g></g></g><path class="cls-26" d="M232.12,118.37a8.48,8.48,0,0,1-8.46-8.34,8.46,8.46,0,0,1,16.91-.24,8.47,8.47,0,0,1-8.33,8.58Zm0-16.08H232a7.62,7.62,0,0,0,.11,15.24h.11a7.62,7.62,0,0,0-.11-15.24Z"/><rect class="cls-26" x="220.28" y="108.29" width="3.71" height="3.71" transform="translate(445.83 217.1) rotate(179.18)"/><path class="cls-26" d="M204.21,107.35l-3.71.05,0,2.39s2.4.76,3.22,2.34Z"/><path class="cls-26" d="M239.72,106.84l2.91,0,0,2.39a5.06,5.06,0,0,0-2.47,2.42Z"/><polygon class="cls-12" points="200.5 107.41 194.12 105.73 194.67 107.49 200.53 109.79 200.5 107.41"/><path class="cls-26" d="M212,118.39a8.45,8.45,0,0,1-8.45-8.33h0a8.46,8.46,0,0,1,8.33-8.58H212a8.46,8.46,0,0,1,.12,16.91Zm0-16.08h-.11A7.63,7.63,0,0,0,204.4,110h0a7.62,7.62,0,1,0,7.62-7.73Z"/><path class="cls-14" d="M231.61,81.27s9.45,3.44,1.14,9.74c0,0,5.64-5.25-3.91-9.07Z"/><path class="cls-27" d="M167.39,187.55a17.77,17.77,0,0,0,2,11.62c6.34,11.5,26.11,47,32.32,54.24,7.43,8.65,68.32,19.2,68.32,19.2s6.63-15.18,2.23-19.76l-55.51-20-27-47.07a13.76,13.76,0,0,0-14-6.85C172,179.57,168.41,181.77,167.39,187.55Z"/><g class="cls-28"><ellipse class="cls-29" cx="403.03" cy="496.95" rx="86.07" ry="43.03"/></g><path class="cls-2" d="M406,117.05s-4.13,24.25-2.73,29.61,12.05,9.84,12.05,9.84-23,16.29-31.7,11.34-11.58-7.4-11.58-7.4,6.81-.9,7.82-4.78.37-37.41.37-37.41Z"/><path class="cls-6" d="M360.16,109.06s1.3,15.56,2.71,20.92,13,13.74,15.88,15.22,7.28.56,7.28.56,13.7-9.58,15.68-13.45S406.78,112,406.78,112s3.61-21.35-.22-26.73-14.9-16.67-28.05-13.4-17.3,4.93-18.13,15.37C360,91.8,360.16,109.06,360.16,109.06Z"/><path class="cls-30" d="M362.09,92.66l9.52,4a1.31,1.31,0,0,0,1-1.51c-.08-1.32-6.26-4.91-8-4.67S361.78,91.89,362.09,92.66Z"/><path class="cls-30" d="M395.56,94l-10.95,4.11a1.49,1.49,0,0,1-1-1.76c.16-1.48,7.32-5.24,9.23-4.89S396,93.1,395.56,94Z"/><path class="cls-8" d="M377.51,464.4s-14.33,21.86-22.59,23.8c0,0-7.29,6.32-3.4,10.69s10.69,4.38,15.06,3.4,18.95-15.54,18.95-15.54l1-2.43,1.46,2.43,5.34-3.89-2.92-19.92Z"/><path class="cls-8" d="M419.05,473.14l.49,16,5.34,8.26,1,.48s1.94,18.95,2.43,19.92.49,3.4,3.4,5.83,10.2,5.83,15.06,1,5.35-9.71,5.35-9.71-13.61-31.58-14.09-34.5-2.43-9.72-2.43-9.72Z"/><ellipse class="cls-9" cx="364.02" cy="109.69" rx="3.4" ry="2.43" transform="translate(250.71 472.59) rotate(-89.43)"/><ellipse class="cls-9" cx="385.88" cy="109.35" rx="3.4" ry="2.43" transform="translate(272.69 494.12) rotate(-89.43)"/><path class="cls-10" d="M377.67,121.63c-1.28-.23-2.81-.62-3.28-1.65-.37-.8,0-1.81,1.09-3.08,1.92-2.2.36-13.45-.4-17.6l1-.12s.7,3.83,1.08,7.92c.52,5.57.23,9-.86,10.28-.88,1-1.21,1.79-1,2.31s1.06.87,2.58,1.14Z"/><path class="cls-31" d="M372.37,126.92l18-.31s1.94.51-1,3.88-13.14,2.3-13.14,2.3S371.85,130.8,372.37,126.92Z"/><path class="cls-11" d="M372.37,126.64l18,0s1.94.23-1,1.63-13.12.89-13.12.89S371.87,128.27,372.37,126.64Z"/><path class="cls-16" d="M358.58,265.39a168.59,168.59,0,0,0-4.64,34.36c-.35,16.28,18.12,139.81,21.61,162.94a4.77,4.77,0,0,0,4.31,4.05l5.66.48a6.09,6.09,0,0,0,6.61-6.25L388.42,333l29.66,141.07s14.85,6.41,18.95-1.94c1.88-3.85-3.68-172.67-7-187.81s-15.25-25.59-15.25-25.59Z"/><path class="cls-4" d="M374.68,392.92a81.51,81.51,0,0,1-9.44-.59c4.41,31.07,8.79,60.27,10.31,70.36a4.77,4.77,0,0,0,4.31,4.05l5.66.48a6.09,6.09,0,0,0,6.61-6.25l-2-69.43A59.76,59.76,0,0,1,374.68,392.92Z"/><path class="cls-4" d="M429.22,370.32a57.79,57.79,0,0,1-24.82,15.95c-1.43.75-2.89,1.44-4.35,2.06l18,85.78s14.85,6.41,18.95-1.94c1.07-2.18-.26-57.55-2.21-107.78A61.13,61.13,0,0,1,429.22,370.32Z"/><path class="cls-32" d="M409,107.85s-5.32-2-4.78-7.34-1.29-17-2.73-18.49-30.14,1.65-39.34-1.6L360,97.4l-1.26-19.2s-4.36-1.5-.91-6.33,7.91-13.52,21-13.39,29.62,1.75,35.38,8.12S426.35,73,426.35,73l-4.91,5.3s-2.13,19.41-6.09,26.41Z"/><path class="cls-30" d="M414.27,66.6c-5.76-6.37-22.27-8-35.38-8.12s-17.58,8.57-21,13.39.91,6.33.91,6.33v.14a12.26,12.26,0,0,1,3.33,2.31l0-.23c9.2,3.25,37.89.13,39.34,1.6l.1.13a13,13,0,0,1,8.67-3.42,12.3,12.3,0,0,1,10.35,5.8c.55-3.62.83-6.19.83-6.19l4.91-5.3S420,73,414.27,66.6Z"/><path class="cls-15" d="M361.23,266s0,7.45,8.26,11.82,20.41,6.81,26.72,5.35,24.78-10.69,25.75-16l-.16.17Z"/><rect class="cls-16" x="399.62" y="273.95" width="2.92" height="9.23" transform="translate(-52.1 96.65) rotate(-12.91)"/><rect class="cls-16" x="371.92" y="271.52" width="2.92" height="9.23" transform="translate(145.7 -128.62) rotate(24.16)"/><rect class="cls-16" x="408.85" y="270.55" width="2.92" height="9.23" transform="translate(-78.56 203.93) rotate(-25.56)"/><rect class="cls-16" x="362.69" y="267.14" width="2.92" height="9.23" transform="translate(282.07 -175.14) rotate(42.86)"/><path class="cls-30" d="M410,104a12.23,12.23,0,0,1-5.72-1.46c.73,3.86,4.71,5.36,4.71,5.36l6.35-3.1a20.14,20.14,0,0,0,1.21-2.65A12.46,12.46,0,0,1,410,104Z"/><path class="cls-6" d="M406.86,103.7s1.75-5.09,6.1-2.61,3.3,9.75.85,12.15-6.88,7.22-7.84,6.73a6.88,6.88,0,0,1-1.93-2Z"/><path class="cls-17" d="M375.81,155.89l10.48,12.71,23.23-14.83,16.8,8.2a17.94,17.94,0,0,1,9.51,20.55c-3.77,14.81-9.16,36.81-9.54,43.08-.36,6-.06,20.21.22,30.3A15.57,15.57,0,0,1,416,271.06c-8.08,2.78-19,5.81-26.64,5.19a104,104,0,0,1-18.63-3.61,16.29,16.29,0,0,1-11.87-14.41c-1.47-18.44-4-55-1.69-67.81A95.36,95.36,0,0,1,368,160.26Z"/><path class="cls-3" d="M426.29,225.6c.07-1.07.28-2.6.6-4.48a57.7,57.7,0,0,1-23.95,15,58.1,58.1,0,0,1-29.72,6.65,78.76,78.76,0,0,1-15.6-1.59c.41,6.39.85,12.3,1.23,17a16.3,16.3,0,0,0,11.91,14.42,103.6,103.6,0,0,0,18.59,3.6c7.66.62,18.59-2.42,26.68-5.2a15.57,15.57,0,0,0,10.48-15.15C426.23,245.81,425.93,231.57,426.29,225.6Z"/><polygon class="cls-18" points="386.01 168.52 377.75 165.12 371.44 168.52 377.75 158.8 386.01 168.52"/><polygon class="cls-17" points="387.98 169.83 389.52 161.59 407.18 144.76 414.83 156.49 398.63 173.82 387.98 169.83"/><path class="cls-17" d="M380.42,148.62l-4.61,3.87c-2,4.35-4.37,16-4.37,16l5.83-7.29,9,7.22S377.4,158.55,380.42,148.62Z"/><polygon class="cls-18" points="399.62 169.49 389.41 161.72 386.5 168.52 391.84 166.57 399.62 169.49"/><rect class="cls-3" x="390.44" y="186.98" width="20.89" height="2.92"/><rect class="cls-3" x="377.75" y="276.38" width="13.37" height="8.26" rx="4.13" transform="translate(32.54 -39.87) rotate(6.2)"/><rect class="cls-15" x="378.55" y="277.05" width="11.8" height="6.8" rx="3.4" transform="translate(32.53 -39.87) rotate(6.2)"/><path class="cls-19" d="M376.4,467.1c-1.68,1.34-3.79,2-5.68,3a16.31,16.31,0,0,0-4.87,3.6c-.64.74-1.44,1.71-1.26,2.76a.9.9,0,0,0,1,.85,6.82,6.82,0,0,0,1.46-.44,14.23,14.23,0,0,0,5.12-2.9,10.41,10.41,0,0,0,1.93-2.59,8.43,8.43,0,0,1,1.88-2.68l-.69-.4a12.22,12.22,0,0,0,.8,8.47c.25.54.58,1.42,1.3,1.41s1-.66,1.05-1.18a19.22,19.22,0,0,0,.19-4.73,21.67,21.67,0,0,0-1.05-5.29c-.17-.51-1-.29-.8.22a20.75,20.75,0,0,1,1,8.2c0,.33-.06.66-.1,1a2.35,2.35,0,0,1-.19.78c-.12.24-.14.19-.28,0s-.3-.55-.44-.84a11.34,11.34,0,0,1-1-3.56,11.55,11.55,0,0,1,.32-4.22.42.42,0,0,0-.7-.41c-1.42,1.17-1.89,3-3,4.42a11.35,11.35,0,0,1-4.35,3.08c-.43.18-.85.34-1.29.49l-.6.2a3.07,3.07,0,0,1-.62.19c-.1-.06-.06-.43,0-.54a2.17,2.17,0,0,1,.32-.73,7.82,7.82,0,0,1,.86-1.11,15.77,15.77,0,0,1,4.5-3.26c2-1,4.13-1.78,5.89-3.18.42-.33-.17-.92-.59-.59Z"/><path class="cls-19" d="M431,476.93c-.33,2.82-1.66,5.44-2.52,8.12a21.66,21.66,0,0,0-1.29,8.32,5.2,5.2,0,0,0,1.05,3.29,1.34,1.34,0,0,0,1.53.41,1.68,1.68,0,0,0,.53-.65l.47-.89a20,20,0,0,0,2.34-7.68,13.06,13.06,0,0,0-.55-4.44,12,12,0,0,1-.76-4.5l-.78.21a16.31,16.31,0,0,0,8.44,7.17,13.46,13.46,0,0,0,1.36.44,1.24,1.24,0,0,0,1.35-.28c.57-.71,0-1.67-.48-2.26a28.39,28.39,0,0,0-9.93-8.3c-.47-.25-.9.47-.42.72a27.69,27.69,0,0,1,8.66,6.8c.3.35.6.71.88,1.08a3.43,3.43,0,0,1,.63,1,.62.62,0,0,1,0,.38c-.07.16-.31.09-.45.06-.42-.11-.83-.24-1.24-.39a15.15,15.15,0,0,1-4.41-2.49,15.53,15.53,0,0,1-3.71-4.36.42.42,0,0,0-.78.21c-.27,2.57,1.16,4.93,1.32,7.46a15.87,15.87,0,0,1-1.53,7.26c-.26.59-.54,1.16-.83,1.73-.14.26-.27.52-.42.77,0,.07-.09.2-.17.22s-.24-.08-.32-.13c-.85-.59-.92-2-1-3a20.81,20.81,0,0,1,1.21-7.81c.9-2.82,2.26-5.54,2.6-8.51a.42.42,0,0,0-.42-.42.42.42,0,0,0-.41.42Z"/><g class="cls-22"><g class="cls-33"><g class="cls-24"><circle class="cls-11" cx="368.31" cy="108.76" r="7.99" transform="translate(238.04 470.02) rotate(-86.62)"/></g><g class="cls-24"><rect class="cls-11" x="352.37" y="104.91" width="23.69" height="2.62" transform="translate(59.98 332.88) rotate(-52.95)"/></g><g class="cls-24"><rect class="cls-11" x="355.5" y="107.77" width="23.69" height="1.88" transform="translate(59.23 336.37) rotate(-52.95)"/></g></g></g><g class="cls-22"><g class="cls-34"><g class="cls-24"><circle class="cls-11" cx="388.27" cy="108.27" r="7.99" transform="translate(-10.97 163.84) rotate(-23.51)"/></g><g class="cls-24"><rect class="cls-11" x="372.33" y="104.42" width="23.69" height="2.62" transform="translate(68.3 348.62) rotate(-52.95)"/></g><g class="cls-24"><rect class="cls-11" x="375.46" y="107.28" width="23.69" height="1.88" transform="translate(67.55 352.11) rotate(-52.95)"/></g></g></g><path class="cls-26" d="M368.26,117.29a8.26,8.26,0,1,1,.21,0Zm0-16.15h-.19a7.87,7.87,0,1,0,.19,0Z"/><rect class="cls-26" x="376.43" y="106.78" width="3.73" height="3.73" transform="matrix(1, -0.02, 0.02, 1, -2.52, 9.18)"/><path class="cls-26" d="M396.18,105.15l3.73-.09,0,2.4s-2.37.85-3.13,2.47Z"/><path class="cls-26" d="M360.52,106l-2.93.08.06,2.39a5,5,0,0,1,2.56,2.34Z"/><polygon class="cls-12" points="399.91 105.06 406.25 103.13 405.76 104.92 399.96 107.46 399.91 105.06"/><path class="cls-26" d="M388.43,116.54a8.26,8.26,0,1,1,.21,0Zm0-16.15h-.19a7.65,7.65,0,0,0-5.09,13.2,7.66,7.66,0,1,0,5.28-13.2Z"/><path class="cls-6" d="M424.3,270.13,414.14,276s-4.35,2.28-2.41,10,14,14.1,14,14.1l2.9-20.47,2.42-4.09Z"/><path class="cls-17" d="M433.19,167.46s27.87,53.55,29.32,64.92S430.1,281,430.1,281s-13.05-1.81-13.54-8.18l22.73-42.75-15.47-22.75S415.3,173.83,433.19,167.46Z"/><path class="cls-6" d="M311,251.46a6.28,6.28,0,0,0-5.52-1.34c-4.1,1-14.3,3.54-15.65,4.7-1,.84-2.33,2.12-3.42,3.17a6.48,6.48,0,0,0-2,4.4l.94,7.44s2.23,3.06,3.62,1.12,1.39-5,1.39-6.68c0-.83,2.78-2.62,2.78-2.62L304,267.9s5,2.25,7.93-5.14l5.73-1.94a2,2,0,0,0,.45-3.25Z"/><path class="cls-6" d="M281.23,272.94l-3.84,4.92a2.24,2.24,0,0,0,.38,3.13h0a2.24,2.24,0,0,0,3.13-.39l3.84-4.92a2.24,2.24,0,0,0-.38-3.13h0A2.24,2.24,0,0,0,281.23,272.94Z"/><path class="cls-6" d="M285.26,274.9,282,279.07a1.9,1.9,0,0,0,.32,2.66h0a1.9,1.9,0,0,0,2.66-.33l3.26-4.17a1.9,1.9,0,0,0-.33-2.66h0A1.9,1.9,0,0,0,285.26,274.9Z"/><path class="cls-6" d="M288.94,276.14l-3.26,4.17A1.9,1.9,0,0,0,286,283h0a1.89,1.89,0,0,0,2.65-.33l3.26-4.18a1.89,1.89,0,0,0-.33-2.65h0A1.89,1.89,0,0,0,288.94,276.14Z"/><path class="cls-6" d="M291.64,278.15l-2.44,3.12a1.44,1.44,0,0,0,.25,2h0a1.43,1.43,0,0,0,2-.24l2.43-3.13a1.41,1.41,0,0,0-.24-2h0A1.42,1.42,0,0,0,291.64,278.15Z"/></svg>