<svg id="Layer_1" data-name="Layer 1" xmlns="http://www.w3.org/2000/svg" viewBox="0 0 270 180"><defs><style>.cls-1{fill:#2f3037;}</style></defs><path class="cls-1" d="M195,57.86a6.44,6.44,0,0,0,6.43-6.43V30A6.44,6.44,0,0,0,195,23.58H165A6.44,6.44,0,0,0,158.57,30V51.43A6.43,6.43,0,0,0,165,57.86h6.42v4.29h-4.28v4.28h10.71V87.86H169a15,15,0,0,0-6.17-3.65c0-.22,0-.43,0-.64a17.12,17.12,0,0,0-31.57-9.21,17,17,0,0,0-7-1.5,17.23,17.23,0,0,0-16,11.06,15,15,0,0,0-4.52,1.79H87.86V79.29h8.57a6.44,6.44,0,0,0,6.43-6.43V30a6.44,6.44,0,0,0-6.43-6.43H75A6.44,6.44,0,0,0,68.58,30V72.86A6.44,6.44,0,0,0,75,79.29h8.57V90H99.19a14.84,14.84,0,0,0-2.08,4.29H87.86v23.56H79.29a6.44,6.44,0,0,0-6.42,6.43v19.28H68.58V150A6.44,6.44,0,0,0,75,156.42h34.28a6.44,6.44,0,0,0,6.43-6.43v-6.43h-4.29V124.28a6.44,6.44,0,0,0-6.43-6.43H92.15V98.57h4.28a15,15,0,0,0,15,15h47.14a15,15,0,0,0,14.82-12.86h8.75v17.14h-15v38.57h34.28V117.85h-15V96.43h-13a15,15,0,0,0-1.34-4.29h10.09V66.43h10.71V62.15h-4.29V57.86Zm-96.41,0H72.87V36.44H98.58ZM75,27.87H96.43A2.14,2.14,0,0,1,98.58,30v2.14H72.87V30A2.14,2.14,0,0,1,75,27.87Zm-2.14,45V62.15H98.58V72.86A2.14,2.14,0,0,1,96.43,75H75A2.14,2.14,0,0,1,72.87,72.86ZM111.43,150a2.14,2.14,0,0,1-2.14,2.14H75A2.14,2.14,0,0,1,72.87,150v-2.14h38.56Zm-4.28-25.71v19.28h-30V124.28a2.14,2.14,0,0,1,2.14-2.14H105A2.14,2.14,0,0,1,107.15,124.28Zm64.27,27.85V139.28h25.71v12.85ZM197.13,135H171.42V122.14h25.71Zm-38.56-25.71H111.43a10.71,10.71,0,0,1-1.28-21.34l1.4-.17.4-1.36A12.81,12.81,0,0,1,131,79.06l2.05,1.26,1-2.17a12.84,12.84,0,0,1,24.49,5.42,13.8,13.8,0,0,1-.17,2l-.33,2.12,2.12.32a10.71,10.71,0,0,1-1.62,21.29ZM165,27.87h30A2.14,2.14,0,0,1,197.13,30V45H162.85V30A2.14,2.14,0,0,1,165,27.87Zm-2.15,23.56V49.29h34.28v2.14A2.14,2.14,0,0,1,195,53.58H165A2.15,2.15,0,0,1,162.85,51.43Zm21.43,10.72h-8.57V57.86h8.57Z"/></svg>