<svg width="254" height="171" viewBox="0 0 254 171" fill="none" xmlns="http://www.w3.org/2000/svg">
<path d="M0 72H254V130.737H0V72Z" fill="#737474"/>
<path d="M39 1L127.942 65L205 1L173 65H81L39 1Z" fill="#ED1B1B"/>
<path d="M39 1L127.942 65L205 1L173 65H81L39 1Z" fill="#737474"/>
<path d="M126 48C139.255 48 150 37.2548 150 24C150 10.7452 139.255 0 126 0C112.745 0 102 10.7452 102 24C102 37.2548 112.745 48 126 48Z" fill="#ED991B" fill-opacity="0.85"/>
<path d="M92.4551 93.416H83.5605V99.6035H91.7344V104.209H83.5605V114H77.8828V88.793H92.4551V93.416ZM114.691 113.104C112.852 113.994 110.449 114.439 107.484 114.439C103.617 114.439 100.576 113.303 98.3613 111.029C96.1465 108.756 95.0391 105.727 95.0391 101.941C95.0391 97.9102 96.2812 94.6406 98.7656 92.1328C101.262 89.625 104.496 88.3711 108.469 88.3711C110.93 88.3711 113.004 88.6816 114.691 89.3027V94.7695C113.004 93.7617 111.082 93.2578 108.926 93.2578C106.559 93.2578 104.648 94.002 103.195 95.4902C101.742 96.9785 101.016 98.9941 101.016 101.537C101.016 103.975 101.701 105.92 103.072 107.373C104.443 108.814 106.289 109.535 108.609 109.535C110.824 109.535 112.852 108.996 114.691 107.918V113.104ZM138.686 112.312C136.225 113.73 133.166 114.439 129.51 114.439C125.455 114.439 122.256 113.32 119.912 111.082C117.58 108.832 116.414 105.738 116.414 101.801C116.414 97.8398 117.691 94.6113 120.246 92.1152C122.801 89.6191 126.199 88.3711 130.441 88.3711C133.113 88.3711 135.469 88.7402 137.508 89.4785V94.8047C135.562 93.6797 133.184 93.1172 130.371 93.1172C128.016 93.1172 126.094 93.8848 124.605 95.4199C123.129 96.9434 122.391 98.9824 122.391 101.537C122.391 104.127 123.053 106.131 124.377 107.549C125.713 108.967 127.512 109.676 129.773 109.676C131.133 109.676 132.211 109.482 133.008 109.096V104.174H127.963V99.6387H138.686V112.312ZM142.43 113.033V107.408C143.449 108.264 144.557 108.908 145.752 109.342C146.947 109.764 148.154 109.975 149.373 109.975C150.088 109.975 150.709 109.91 151.236 109.781C151.775 109.652 152.221 109.477 152.572 109.254C152.936 109.02 153.205 108.75 153.381 108.445C153.557 108.129 153.645 107.789 153.645 107.426C153.645 106.934 153.504 106.494 153.223 106.107C152.941 105.721 152.555 105.363 152.062 105.035C151.582 104.707 151.008 104.391 150.34 104.086C149.672 103.781 148.951 103.471 148.178 103.154C146.209 102.334 144.738 101.332 143.766 100.148C142.805 98.9648 142.324 97.5352 142.324 95.8594C142.324 94.5469 142.588 93.4219 143.115 92.4844C143.643 91.5352 144.357 90.7559 145.26 90.1465C146.174 89.5371 147.229 89.0918 148.424 88.8105C149.619 88.5176 150.885 88.3711 152.221 88.3711C153.533 88.3711 154.693 88.4531 155.701 88.6172C156.721 88.7695 157.658 89.0098 158.514 89.3379V94.5938C158.092 94.3008 157.629 94.043 157.125 93.8203C156.633 93.5977 156.123 93.416 155.596 93.2754C155.068 93.123 154.541 93.0117 154.014 92.9414C153.498 92.8711 153.006 92.8359 152.537 92.8359C151.893 92.8359 151.307 92.9004 150.779 93.0293C150.252 93.1465 149.807 93.3164 149.443 93.5391C149.08 93.7617 148.799 94.0312 148.6 94.3477C148.4 94.6523 148.301 94.998 148.301 95.3848C148.301 95.8066 148.412 96.1875 148.635 96.5273C148.857 96.8555 149.174 97.1719 149.584 97.4766C149.994 97.7695 150.492 98.0625 151.078 98.3555C151.664 98.6367 152.326 98.9297 153.064 99.2344C154.072 99.6562 154.975 100.107 155.771 100.588C156.58 101.057 157.271 101.59 157.846 102.188C158.42 102.785 158.859 103.471 159.164 104.244C159.469 105.006 159.621 105.896 159.621 106.916C159.621 108.322 159.352 109.506 158.812 110.467C158.285 111.416 157.564 112.189 156.65 112.787C155.736 113.373 154.67 113.795 153.451 114.053C152.244 114.311 150.967 114.439 149.619 114.439C148.236 114.439 146.918 114.322 145.664 114.088C144.422 113.854 143.344 113.502 142.43 113.033ZM162.609 113.033V107.408C163.629 108.264 164.736 108.908 165.932 109.342C167.127 109.764 168.334 109.975 169.553 109.975C170.268 109.975 170.889 109.91 171.416 109.781C171.955 109.652 172.4 109.477 172.752 109.254C173.115 109.02 173.385 108.75 173.561 108.445C173.736 108.129 173.824 107.789 173.824 107.426C173.824 106.934 173.684 106.494 173.402 106.107C173.121 105.721 172.734 105.363 172.242 105.035C171.762 104.707 171.188 104.391 170.52 104.086C169.852 103.781 169.131 103.471 168.357 103.154C166.389 102.334 164.918 101.332 163.945 100.148C162.984 98.9648 162.504 97.5352 162.504 95.8594C162.504 94.5469 162.768 93.4219 163.295 92.4844C163.822 91.5352 164.537 90.7559 165.439 90.1465C166.354 89.5371 167.408 89.0918 168.604 88.8105C169.799 88.5176 171.064 88.3711 172.4 88.3711C173.713 88.3711 174.873 88.4531 175.881 88.6172C176.9 88.7695 177.838 89.0098 178.693 89.3379V94.5938C178.271 94.3008 177.809 94.043 177.305 93.8203C176.812 93.5977 176.303 93.416 175.775 93.2754C175.248 93.123 174.721 93.0117 174.193 92.9414C173.678 92.8711 173.186 92.8359 172.717 92.8359C172.072 92.8359 171.486 92.9004 170.959 93.0293C170.432 93.1465 169.986 93.3164 169.623 93.5391C169.26 93.7617 168.979 94.0312 168.779 94.3477C168.58 94.6523 168.48 94.998 168.48 95.3848C168.48 95.8066 168.592 96.1875 168.814 96.5273C169.037 96.8555 169.354 97.1719 169.764 97.4766C170.174 97.7695 170.672 98.0625 171.258 98.3555C171.844 98.6367 172.506 98.9297 173.244 99.2344C174.252 99.6562 175.154 100.107 175.951 100.588C176.76 101.057 177.451 101.59 178.025 102.188C178.6 102.785 179.039 103.471 179.344 104.244C179.648 105.006 179.801 105.896 179.801 106.916C179.801 108.322 179.531 109.506 178.992 110.467C178.465 111.416 177.744 112.189 176.83 112.787C175.916 113.373 174.85 113.795 173.631 114.053C172.424 114.311 171.146 114.439 169.799 114.439C168.416 114.439 167.098 114.322 165.844 114.088C164.602 113.854 163.523 113.502 162.609 113.033Z" fill="white"/>
<g filter="url(#filter0_i_211_14)">
<path d="M17.5 157H7.00195V139.495H17.0972V142.706H10.9448V146.6H16.6699V149.798H10.9448V153.802H17.5V157ZM32.002 144.5L27.876 150.555L31.9775 157H27.5342L25.7275 153.631C25.5811 153.362 25.4061 152.984 25.2026 152.496H25.1538C25.0317 152.837 24.8649 153.204 24.6533 153.594L22.8345 157H18.4033L22.627 150.774L18.6597 144.5H23.1274L24.9097 148.003C25.1457 148.467 25.3125 148.858 25.4102 149.175H25.459C25.5892 148.793 25.7642 148.394 25.9839 147.979L27.8027 144.5H32.002ZM37.6538 155.547H37.605V162.75H33.7476V144.5H37.605V146.38H37.6538C38.606 144.923 39.9447 144.195 41.6699 144.195C43.2894 144.195 44.5386 144.752 45.4175 145.867C46.3045 146.974 46.748 148.484 46.748 150.396C46.748 152.479 46.2313 154.152 45.1978 155.413C44.1724 156.674 42.8052 157.305 41.0962 157.305C39.5907 157.305 38.4432 156.719 37.6538 155.547ZM37.5439 150.42V151.421C37.5439 152.284 37.7718 152.988 38.2275 153.533C38.6833 154.078 39.2814 154.351 40.022 154.351C40.9009 154.351 41.5804 154.013 42.0605 153.338C42.5488 152.654 42.793 151.69 42.793 150.445C42.793 148.248 41.9385 147.149 40.2295 147.149C39.4401 147.149 38.7931 147.45 38.2886 148.052C37.7922 148.646 37.5439 149.436 37.5439 150.42ZM60.481 151.849H52.3267C52.4569 153.663 53.6003 154.571 55.7568 154.571C57.1322 154.571 58.3407 154.245 59.3823 153.594V156.377C58.2267 156.996 56.7253 157.305 54.8779 157.305C52.8597 157.305 51.2931 156.748 50.1782 155.633C49.0633 154.51 48.5059 152.947 48.5059 150.945C48.5059 148.87 49.1081 147.226 50.3125 146.014C51.5169 144.801 52.998 144.195 54.7559 144.195C56.5788 144.195 57.9867 144.736 58.9795 145.818C59.9805 146.901 60.481 148.37 60.481 150.225V151.849ZM56.9043 149.48C56.9043 147.69 56.18 146.795 54.7314 146.795C54.113 146.795 53.5758 147.051 53.1201 147.564C52.6725 148.077 52.3999 148.715 52.3022 149.48H56.9043ZM70.9302 147.979C70.4663 147.727 69.9251 147.601 69.3066 147.601C68.4684 147.601 67.8133 147.91 67.3413 148.528C66.8693 149.139 66.6333 149.973 66.6333 151.031V157H62.7759V144.5H66.6333V146.819H66.6821C67.2925 145.127 68.3911 144.28 69.978 144.28C70.3849 144.28 70.7023 144.329 70.9302 144.427V147.979ZM74.7876 142.522C74.1366 142.522 73.6035 142.331 73.1885 141.949C72.7734 141.558 72.5659 141.082 72.5659 140.521C72.5659 139.943 72.7734 139.471 73.1885 139.104C73.6035 138.738 74.1366 138.555 74.7876 138.555C75.4468 138.555 75.9798 138.738 76.3867 139.104C76.8018 139.471 77.0093 139.943 77.0093 140.521C77.0093 141.106 76.8018 141.587 76.3867 141.961C75.9798 142.335 75.4468 142.522 74.7876 142.522ZM76.6919 157H72.8345V144.5H76.6919V157ZM91.1694 151.849H83.0151C83.1453 153.663 84.2887 154.571 86.4453 154.571C87.8206 154.571 89.0291 154.245 90.0708 153.594V156.377C88.9152 156.996 87.4137 157.305 85.5664 157.305C83.5482 157.305 81.9816 156.748 80.8667 155.633C79.7518 154.51 79.1943 152.947 79.1943 150.945C79.1943 148.87 79.7965 147.226 81.001 146.014C82.2054 144.801 83.6865 144.195 85.4443 144.195C87.2673 144.195 88.6751 144.736 89.668 145.818C90.6689 146.901 91.1694 148.37 91.1694 150.225V151.849ZM87.5928 149.48C87.5928 147.69 86.8685 146.795 85.4199 146.795C84.8014 146.795 84.2643 147.051 83.8086 147.564C83.361 148.077 83.0884 148.715 82.9907 149.48H87.5928ZM105.537 157H101.692V150.054C101.692 148.117 101 147.149 99.6167 147.149C98.9494 147.149 98.4001 147.405 97.9688 147.918C97.5374 148.431 97.3218 149.082 97.3218 149.871V157H93.4644V144.5H97.3218V146.478H97.3706C98.2902 144.956 99.6289 144.195 101.387 144.195C104.154 144.195 105.537 145.912 105.537 149.346V157ZM118.074 156.548C117.203 157.053 115.946 157.305 114.302 157.305C112.381 157.305 110.827 156.723 109.639 155.56C108.451 154.396 107.856 152.894 107.856 151.055C107.856 148.931 108.491 147.259 109.761 146.038C111.038 144.809 112.743 144.195 114.875 144.195C116.348 144.195 117.415 144.39 118.074 144.781V148.052C117.268 147.45 116.369 147.149 115.376 147.149C114.269 147.149 113.39 147.474 112.739 148.125C112.096 148.768 111.775 149.66 111.775 150.799C111.775 151.906 112.084 152.776 112.703 153.411C113.321 154.038 114.172 154.351 115.254 154.351C116.214 154.351 117.154 154.05 118.074 153.448V156.548ZM131.843 151.849H123.689C123.819 153.663 124.963 154.571 127.119 154.571C128.494 154.571 129.703 154.245 130.745 153.594V156.377C129.589 156.996 128.088 157.305 126.24 157.305C124.222 157.305 122.655 156.748 121.541 155.633C120.426 154.51 119.868 152.947 119.868 150.945C119.868 148.87 120.47 147.226 121.675 146.014C122.879 144.801 124.36 144.195 126.118 144.195C127.941 144.195 129.349 144.736 130.342 145.818C131.343 146.901 131.843 148.37 131.843 150.225V151.849ZM128.267 149.48C128.267 147.69 127.542 146.795 126.094 146.795C125.475 146.795 124.938 147.051 124.482 147.564C124.035 148.077 123.762 148.715 123.665 149.48H128.267ZM148.604 156.854C148.034 157.155 147.175 157.305 146.028 157.305C143.31 157.305 141.951 155.893 141.951 153.069V147.344H139.924V144.5H141.951V141.802L145.796 140.704V144.5H148.604V147.344H145.796V152.398C145.796 153.7 146.313 154.351 147.346 154.351C147.753 154.351 148.172 154.233 148.604 153.997V156.854ZM162.788 157H158.943V149.896C158.943 148.064 158.276 147.149 156.941 147.149C156.257 147.149 155.704 147.405 155.281 147.918C154.858 148.431 154.646 149.082 154.646 149.871V157H150.789V138.494H154.646V146.355H154.695C155.639 144.915 156.921 144.195 158.54 144.195C161.372 144.195 162.788 145.904 162.788 149.322V157ZM177.083 151.849H168.928C169.058 153.663 170.202 154.571 172.358 154.571C173.734 154.571 174.942 154.245 175.984 153.594V156.377C174.828 156.996 173.327 157.305 171.479 157.305C169.461 157.305 167.895 156.748 166.78 155.633C165.665 154.51 165.107 152.947 165.107 150.945C165.107 148.87 165.71 147.226 166.914 146.014C168.118 144.801 169.6 144.195 171.357 144.195C173.18 144.195 174.588 144.736 175.581 145.818C176.582 146.901 177.083 148.37 177.083 150.225V151.849ZM173.506 149.48C173.506 147.69 172.782 146.795 171.333 146.795C170.715 146.795 170.177 147.051 169.722 147.564C169.274 148.077 169.001 148.715 168.904 149.48H173.506ZM185.859 156.329V152.422C186.567 153.016 187.336 153.464 188.167 153.765C188.997 154.058 189.835 154.205 190.681 154.205C191.178 154.205 191.609 154.16 191.975 154.07C192.349 153.981 192.659 153.859 192.903 153.704C193.155 153.541 193.342 153.354 193.464 153.143C193.586 152.923 193.647 152.687 193.647 152.435C193.647 152.093 193.55 151.788 193.354 151.519C193.159 151.25 192.891 151.002 192.549 150.774C192.215 150.547 191.816 150.327 191.353 150.115C190.889 149.904 190.388 149.688 189.851 149.468C188.484 148.899 187.463 148.203 186.787 147.381C186.12 146.559 185.786 145.566 185.786 144.402C185.786 143.491 185.969 142.71 186.335 142.059C186.702 141.399 187.198 140.858 187.825 140.435C188.459 140.012 189.192 139.703 190.022 139.507C190.852 139.304 191.731 139.202 192.659 139.202C193.57 139.202 194.376 139.259 195.076 139.373C195.784 139.479 196.435 139.646 197.029 139.874V143.523C196.736 143.32 196.414 143.141 196.064 142.986C195.723 142.832 195.369 142.706 195.002 142.608C194.636 142.502 194.27 142.425 193.904 142.376C193.546 142.327 193.204 142.303 192.878 142.303C192.431 142.303 192.024 142.347 191.658 142.437C191.292 142.518 190.982 142.636 190.73 142.791C190.478 142.946 190.282 143.133 190.144 143.353C190.006 143.564 189.937 143.804 189.937 144.073C189.937 144.366 190.014 144.63 190.168 144.866C190.323 145.094 190.543 145.314 190.828 145.525C191.112 145.729 191.458 145.932 191.865 146.136C192.272 146.331 192.732 146.535 193.245 146.746C193.944 147.039 194.571 147.352 195.125 147.686C195.686 148.012 196.166 148.382 196.565 148.797C196.964 149.212 197.269 149.688 197.48 150.225C197.692 150.754 197.798 151.373 197.798 152.081C197.798 153.057 197.611 153.879 197.236 154.546C196.87 155.206 196.37 155.743 195.735 156.158C195.1 156.565 194.36 156.858 193.513 157.037C192.675 157.216 191.788 157.305 190.852 157.305C189.892 157.305 188.976 157.224 188.105 157.061C187.243 156.898 186.494 156.654 185.859 156.329ZM213.228 156.377C211.95 156.996 210.282 157.305 208.223 157.305C205.537 157.305 203.425 156.516 201.887 154.937C200.349 153.358 199.58 151.255 199.58 148.626C199.58 145.826 200.443 143.556 202.168 141.814C203.901 140.073 206.147 139.202 208.906 139.202C210.615 139.202 212.056 139.418 213.228 139.849V143.646C212.056 142.946 210.721 142.596 209.224 142.596C207.58 142.596 206.253 143.112 205.244 144.146C204.235 145.18 203.73 146.579 203.73 148.345C203.73 150.038 204.207 151.389 205.159 152.398C206.111 153.399 207.393 153.899 209.004 153.899C210.542 153.899 211.95 153.525 213.228 152.776V156.377ZM231.672 157H227.375L226.13 153.106H219.905L218.672 157H214.399L220.771 139.495H225.447L231.672 157ZM225.227 150.079L223.347 144.195C223.209 143.755 223.111 143.23 223.054 142.62H222.957C222.916 143.133 222.814 143.641 222.651 144.146L220.747 150.079H225.227ZM249.25 157H244.954L243.708 153.106H237.483L236.25 157H231.978L238.35 139.495H243.025L249.25 157ZM242.805 150.079L240.925 144.195C240.787 143.755 240.689 143.23 240.632 142.62H240.535C240.494 143.133 240.392 143.641 240.229 144.146L238.325 150.079H242.805Z" fill="#737474"/>
</g>
<defs>
<filter id="filter0_i_211_14" x="7.00195" y="138.494" width="242.248" height="28.256" filterUnits="userSpaceOnUse" color-interpolation-filters="sRGB">
<feFlood flood-opacity="0" result="BackgroundImageFix"/>
<feBlend mode="normal" in="SourceGraphic" in2="BackgroundImageFix" result="shape"/>
<feColorMatrix in="SourceAlpha" type="matrix" values="0 0 0 0 0 0 0 0 0 0 0 0 0 0 0 0 0 0 127 0" result="hardAlpha"/>
<feOffset dy="4"/>
<feGaussianBlur stdDeviation="2"/>
<feComposite in2="hardAlpha" operator="arithmetic" k2="-1" k3="1"/>
<feColorMatrix type="matrix" values="0 0 0 0 0 0 0 0 0 0 0 0 0 0 0 0 0 0 0.25 0"/>
<feBlend mode="normal" in2="shape" result="effect1_innerShadow_211_14"/>
</filter>
</defs>
</svg>
