<svg id="Layer_1" data-name="Layer 1" xmlns="http://www.w3.org/2000/svg" viewBox="0 0 270 180"><defs><style>.cls-1{fill:#231f20;}</style></defs><g id="Processor_security" data-name="Processor security"><path class="cls-1" d="M122.69,38.18h4.92v4.93h-4.92Z"/><path class="cls-1" d="M186.71,97.28h4.92v4.92h-4.92Z"/><path class="cls-1" d="M142.39,136.67h4.92v4.93h-4.92Z"/><path class="cls-1" d="M122.69,144.06h4.92V149h-4.92Z"/><path class="cls-1" d="M83.29,87.43h4.93v4.92H83.29Z"/><path class="cls-1" d="M142.39,38.18h4.92v4.93h-4.92Z"/><path class="cls-1" d="M181.78,77.58h4.93V82.5h-4.93Z"/><path class="cls-1" d="M169.47,53h4.93v4.92h-4.93Z"/><path class="cls-1" d="M95.6,53h4.93v4.92H95.6Z"/><path class="cls-1" d="M169.47,121.9h4.93v4.92h-4.93Z"/><path class="cls-1" d="M95.6,121.9h4.93v4.92H95.6Z"/><path class="cls-1" d="M134.71,87.43a7.37,7.37,0,0,0-2.17,14.33v5.37h4.92v-5.38a7.37,7.37,0,0,0-2.75-14.32Zm2.75,7.29a2.46,2.46,0,0,1-2.36,2.56h0a2.47,2.47,0,0,1-.2-4.93h.1a2.46,2.46,0,0,1,2.46,2.37Z"/><path class="cls-1" d="M147.31,80.49V77.58a12.31,12.31,0,1,0-24.62,0v2.91a7.41,7.41,0,0,0-4.93,6.94v19.7a7.39,7.39,0,0,0,7.39,7.38h19.7a7.39,7.39,0,0,0,7.39-7.38V87.43A7.41,7.41,0,0,0,147.31,80.49Zm-19.7-2.91a7.39,7.39,0,1,1,14.78,0V80H127.61Zm19.7,29.55a2.46,2.46,0,0,1-2.46,2.46h-19.7a2.46,2.46,0,0,1-2.46-2.46V87.43A2.46,2.46,0,0,1,125.15,85h19.7a2.46,2.46,0,0,1,2.46,2.46Z"/><path class="cls-1" d="M201.48,112.05a7.19,7.19,0,0,0-3.16.74l-5.67-5.66H169.47V102.2h12.31V97.28H169.47V92.35h12.89l14-7A7.36,7.36,0,1,0,194.09,80a6.54,6.54,0,0,0,.09.89l-13,6.5H169.47V82.5h7.39V77.58h-7.39V72.65h10.87l8.12-8.12A7.46,7.46,0,1,0,185,61.05l-6.68,6.68h-8.83a12.32,12.32,0,0,0-12.31-12.31V49.05L171.23,35a7.27,7.27,0,0,0,3.17.74A7.39,7.39,0,1,0,167,28.33a7.27,7.27,0,0,0,.74,3.17L152.24,47v8.41h-4.93V48h-4.92v7.39h-4.93V37.73a7.38,7.38,0,1,0-4.92,0V55.42h-4.93V48h-4.92v7.39h-4.93V37.16L107.18,26.58a7.37,7.37,0,1,0-6.65,4.22,7.33,7.33,0,0,0,3.16-.74l9.15,9.14V55.42a12.32,12.32,0,0,0-12.31,12.31H91.7L85,61.05a7.37,7.37,0,1,0-6.65,4.22,7.33,7.33,0,0,0,3.16-.74l8.13,8.12h10.87v4.93H84.86L72,88.32a7.29,7.29,0,0,0-3.45-.89,7.39,7.39,0,1,0,7.39,7.38h0a7.3,7.3,0,0,0-.59-2.87L86.65,82.5h13.88v4.93H93.14v4.92h7.39v4.93H78.37v4.92h22.16v4.93H86.9L77,122a6.47,6.47,0,0,0-1.07-.11,7.44,7.44,0,1,0,5.44,2.43l8.19-12.28h11a12.32,12.32,0,0,0,12.31,12.31v16.22l-9.15,9.14a7.47,7.47,0,1,0,3.49,3.49l10.58-10.59V124.36h4.93v14.77h4.92V124.36h4.93v21.06l15,9.36a7.52,7.52,0,1,0,2.64-4.16l-12.67-7.93V124.36h4.93v7.39h4.92v-7.39h4.93v19.7h17.68a7.38,7.38,0,1,0,0-4.93H157.16V124.36a12.32,12.32,0,0,0,12.31-12.31h21.14l4.22,4.22a7.37,7.37,0,1,0,6.65-4.22Zm0-34.47A2.46,2.46,0,1,1,199,80,2.46,2.46,0,0,1,201.48,77.58Zm-9.85-22.16a2.46,2.46,0,1,1-2.46,2.46A2.46,2.46,0,0,1,191.63,55.42ZM174.4,25.87a2.47,2.47,0,1,1-2.47,2.46A2.46,2.46,0,0,1,174.4,25.87ZM135,28.33a2.47,2.47,0,1,1-2.46,2.47A2.47,2.47,0,0,1,135,28.33ZM98.07,23.41a2.46,2.46,0,1,1,2.46,2.46A2.46,2.46,0,0,1,98.07,23.41ZM75.91,57.88a2.46,2.46,0,1,1,2.46,2.46A2.46,2.46,0,0,1,75.91,57.88Zm-7.39,39.4A2.47,2.47,0,1,1,71,94.81,2.47,2.47,0,0,1,68.52,97.28Zm7.39,34.47a2.47,2.47,0,1,1,2.46-2.46A2.47,2.47,0,0,1,75.91,131.75Zm24.62,27.08a2.46,2.46,0,1,1,2.46-2.46A2.46,2.46,0,0,1,100.53,158.83Zm54.17-4.92a2.46,2.46,0,1,1-2.46,2.46A2.46,2.46,0,0,1,154.7,153.91Zm22.16-14.78a2.47,2.47,0,1,1-2.46,2.47A2.47,2.47,0,0,1,176.86,139.13Zm-12.31-27.08a7.39,7.39,0,0,1-7.39,7.39H112.84a7.39,7.39,0,0,1-7.39-7.39V67.73a7.39,7.39,0,0,1,7.39-7.39h44.32a7.39,7.39,0,0,1,7.39,7.39Zm36.93,9.85a2.47,2.47,0,1,1,2.46-2.46A2.46,2.46,0,0,1,201.48,121.9Z"/></g></svg>